{
    "asset" : {
        "generator" : "Khronos glTF Blender I/O v1.6.16",
        "version" : "2.0"
    },
    "scene" : 0,
    "scenes" : [
        {
            "name" : "Scene",
            "nodes" : [
                0
            ]
        }
    ],
    "nodes" : [
        {
            "mesh" : 0,
            "name" : "Cubi"
        }
    ],
    "meshes" : [
        {
            "name" : "Sphere.001",
            "primitives" : [
                {
                    "attributes" : {
                        "POSITION" : 0,
                        "NORMAL" : 1,
                        "TEXCOORD_0" : 2
                    },
                    "indices" : 3
                }
            ]
        }
    ],
    "accessors" : [
        {
            "bufferView" : 0,
            "componentType" : 5126,
            "count" : 4160,
            "max" : [
                1,
                1.000000238418579,
                0.9999994039535522
            ],
            "min" : [
                -1,
                -1.000000238418579,
                -13.892367362976074
            ],
            "type" : "VEC3"
        },
        {
            "bufferView" : 1,
            "componentType" : 5126,
            "count" : 4160,
            "type" : "VEC3"
        },
        {
            "bufferView" : 2,
            "componentType" : 5126,
            "count" : 4160,
            "type" : "VEC2"
        },
        {
            "bufferView" : 3,
            "componentType" : 5123,
            "count" : 6132,
            "type" : "SCALAR"
        }
    ],
    "bufferViews" : [
        {
            "buffer" : 0,
            "byteLength" : 49920,
            "byteOffset" : 0
        },
        {
            "buffer" : 0,
            "byteLength" : 49920,
            "byteOffset" : 49920
        },
        {
            "buffer" : 0,
            "byteLength" : 33280,
            "byteOffset" : 99840
        },
        {
            "buffer" : 0,
            "byteLength" : 12264,
            "byteOffset" : 133120
        }
    ],
    "buffers" : [
        {
            "byteLength" : 145384,
            "uri" : "data:application/octet-stream;base64,"
        }
    ]
}
