{
    "asset" : {
        "generator" : "Khronos glTF Blender I/O v1.6.16",
        "version" : "2.0"
    },
    "scene" : 0,
    "scenes" : [
        {
            "name" : "Scene",
            "nodes" : [
                0
            ]
        }
    ],
    "nodes" : [
        {
            "mesh" : 0,
            "name" : "Sphere",
            "rotation" : [
                0,
                0,
                0.00040532764978706837,
                1
            ],
            "scale" : [
                5,
                5,
                5
            ]
        }
    ],
    "meshes" : [
        {
            "name" : "Sphere",
            "primitives" : [
                {
                    "attributes" : {
                        "POSITION" : 0,
                        "NORMAL" : 1,
                        "TEXCOORD_0" : 2
                    },
                    "indices" : 3
                }
            ]
        }
    ],
    "accessors" : [
        {
            "bufferView" : 0,
            "componentType" : 5126,
            "count" : 2732,
            "max" : [
                11.482015609741211,
                1.5786123275756836,
                1.001623272895813
            ],
            "min" : [
                -0.9999990463256836,
                -1.6171848773956299,
                -1.0000007152557373
            ],
            "type" : "VEC3"
        },
        {
            "bufferView" : 1,
            "componentType" : 5126,
            "count" : 2732,
            "type" : "VEC3"
        },
        {
            "bufferView" : 2,
            "componentType" : 5126,
            "count" : 2732,
            "type" : "VEC2"
        },
        {
            "bufferView" : 3,
            "componentType" : 5123,
            "count" : 4164,
            "type" : "SCALAR"
        }
    ],
    "bufferViews" : [
        {
            "buffer" : 0,
            "byteLength" : 32784,
            "byteOffset" : 0
        },
        {
            "buffer" : 0,
            "byteLength" : 32784,
            "byteOffset" : 32784
        },
        {
            "buffer" : 0,
            "byteLength" : 21856,
            "byteOffset" : 65568
        },
        {
            "buffer" : 0,
            "byteLength" : 8328,
            "byteOffset" : 87424
        }
    ],
    "buffers" : [
        {
            "byteLength" : 95752,
            "uri" : "data:application/octet-stream;base64,"
        }
    ]
}
