{
    "asset" : {
        "generator" : "Khronos glTF Blender I/O v1.6.16",
        "version" : "2.0"
    },
    "scene" : 0,
    "scenes" : [
        {
            "name" : "Scene",
            "nodes" : [
                0
            ]
        }
    ],
    "nodes" : [
        {
            "mesh" : 0,
            "name" : "Cube"
        }
    ],
    "meshes" : [
        {
            "name" : "Cube",
            "primitives" : [
                {
                    "attributes" : {
                        "POSITION" : 0,
                        "NORMAL" : 1,
                        "TEXCOORD_0" : 2
                    },
                    "indices" : 3
                }
            ]
        }
    ],
    "accessors" : [
        {
            "bufferView" : 0,
            "componentType" : 5126,
            "count" : 5408,
            "max" : [
                4,
                68.53553771972656,
                6.92563533782959
            ],
            "min" : [
                -4,
                -1.5000076293945312,
                -7.535533905029297
            ],
            "type" : "VEC3"
        },
        {
            "bufferView" : 1,
            "componentType" : 5126,
            "count" : 5408,
            "type" : "VEC3"
        },
        {
            "bufferView" : 2,
            "componentType" : 5126,
            "count" : 5408,
            "type" : "VEC2"
        },
        {
            "bufferView" : 3,
            "componentType" : 5123,
            "count" : 8508,
            "type" : "SCALAR"
        }
    ],
    "bufferViews" : [
        {
            "buffer" : 0,
            "byteLength" : 64896,
            "byteOffset" : 0
        },
        {
            "buffer" : 0,
            "byteLength" : 64896,
            "byteOffset" : 64896
        },
        {
            "buffer" : 0,
            "byteLength" : 43264,
            "byteOffset" : 129792
        },
        {
            "buffer" : 0,
            "byteLength" : 17016,
            "byteOffset" : 173056
        }
    ],
    "buffers" : [
        {
            "byteLength" : 190072,
            "uri" : "data:application/octet-stream;base64,"
        }
    ]
}
